PathFileType	4	(X/Y/Z)	E:\Qualisys_Data\Carbon_Farble_Plate\Data\Amateur_Runner\S14\T2\S14T2V23_c3d.trc
DataRate	CameraRate	NumFrames	NumMarkers	Units	OrigDataRate	OrigDataStartFrame	OrigNumFrames
200.000000	200.000000	5	39	mm	200.000000	0	330
Frame#	Time	LSHO			RSHO			LICST			RICST			LASIS			LHEEL			RASIS			LTROC			RTROC			SACR			LTH1			LSK4			LTH2			LTH3			RHM5			LSK2			LTH4			RTH1			LTOE			RTH2			RTH3			RTH4			LLEP			RLEP			LSK1			LSK3			RSK1			LHM5			RSK2			LFT1			RSK3			RSK4			LLME			RLME			RTOE			RHEEL			RFT1			RFT2			LFT2			
		X1	Y1	Z1	X2	Y2	Z2	X3	Y3	Z3	X4	Y4	Z4	X5	Y5	Z5	X6	Y6	Z6	X7	Y7	Z7	X8	Y8	Z8	X9	Y9	Z9	X10	Y10	Z10	X11	Y11	Z11	X12	Y12	Z12	X13	Y13	Z13	X14	Y14	Z14	X15	Y15	Z15	X16	Y16	Z16	X17	Y17	Z17	X18	Y18	Z18	X19	Y19	Z19	X20	Y20	Z20	X21	Y21	Z21	X22	Y22	Z22	X23	Y23	Z23	X24	Y24	Z24	X25	Y25	Z25	X26	Y26	Z26	X27	Y27	Z27	X28	Y28	Z28	X29	Y29	Z29	X30	Y30	Z30	X31	Y31	Z31	X32	Y32	Z32	X33	Y33	Z33	X34	Y34	Z34	X35	Y35	Z35	X36	Y36	Z36	X37	Y37	Z37	X38	Y38	Z38	X39	Y39	Z39	

1	0	-3690.572265625	1473.20751953125	-493.6437072753906	-3731.71142578125	1483.481567382812	-200.7656097412109	-3759.57275390625	1024.198364257812	-463.1788330078125	-3738.73583984375	1040.425415039062	-190.2976226806641	-3727.377685546875	968.0753784179688	-440.3444213867188	-4349.55126953125	383.04345703125	-338.4696655273438	-3715.051025390625	997.9476928710938	-210.6703033447266	-3886.435546875	937.3612670898438	-476.9450073242188	-3834.49755859375	926.6466674804688	-140.4180297851562	-3887.28369140625	1043.08642578125	-328.8208923339844	-3927.043701171875	713.0487060546875	-475.2645263671875	-4224.19140625	484.2334594726562	-417.986083984375	-3988.61328125	747.693115234375	-438.8380737304688	-3960.39697265625	620.9224853515625	-452.818115234375	-3489.61181640625	137.2962646484375	-166.7596435546875	-4148.55419921875	547.3095703125	-433.8248291015625	-4027.85546875	657.7867431640625	-424.1466674804688	-3624.901611328125	761.665283203125	-161.6670684814453	-4345.2470703125	126.2793731689453	-373.6662902832031	-3692.9921875	729.2020874023438	-151.6701049804688	-3579.753173828125	675.0808715820312	-187.7645721435547	-3651.1005859375	637.7711791992188	-169.3993225097656	-4041.72216796875	578.8527221679688	-438.3433227539062	-3603.011474609375	584.8674926757812	-172.3320770263672	-4096.216796875	485.2745056152344	-442.4002990722656	-4176.94775390625	420.2120971679688	-433.2992248535156	-3579.14990234375	461.5747375488281	-168.9435577392578	-4384.64599609375	193.3052062988281	-427.0410461425781	-3663.462890625	458.3536376953125	-166.1580505371094	-4371.53271484375	368.8844604492188	-312.7294311523438	-3580.752197265625	359.05712890625	-180.9829559326172	-3659.665771484375	361.7986450195312	-175.8152770996094	-4333.666015625	339.7588500976562	-406.5945739746094	-3621.581298828125	182.5023803710938	-196.3386688232422	-3413.758056640625	168.8971710205078	-224.6771850585938	-3673.478515625	146.1664733886719	-252.7050018310547	-3651.947509765625	119.5966262817383	-280.7862548828125	-3669.70751953125	118.0960235595703	-227.8418273925781	-4387.24267578125	378.9599304199219	-365.0525817871094
2	0.005	-3668.5966796875	1473.846923828125	-492.7625427246094	-3710.99560546875	1484.044677734375	-200.0852508544922	-3738.5400390625	1024.845581054688	-463.7796630859375	-3716.762451171875	1041.225708007812	-190.9676513671875	-3706.63427734375	969.0328369140624	-440.68359375	-4334.453125	391.6040954589844	-337.0611877441406	-3694.17041015625	997.4934692382812	-211.5781097412109	-3865.475830078125	938.2822265625	-477.483642578125	-3813.009765625	925.4494018554688	-141.0484619140625	-3866.295654296875	1043.180908203125	-329.28515625	-3905.1474609375	712.7220458984375	-475.966796875	-4204.60107421875	490.0784301757812	-418.4315795898438	-3966.6591796875	747.5126953125	-439.5848083496094	-3937.765869140625	620.8690795898438	-454.2738647460938	-3453.563720703125	140.2421875	-167.3039703369141	-4128.58642578125	552.24365234375	-435.3441772460938	-4005.4482421875	657.8724975585938	-425.2944030761719	-3604.763427734375	759.5299072265625	-162.3231353759766	-4328.38134765625	134.8490905761719	-379.228271484375	-3672.581787109375	727.1526489257812	-150.4983978271484	-3562.077392578125	673.1048583984375	-187.5472717285156	-3632.108154296875	635.8123168945312	-169.3275451660156	-4020.512939453125	580.5846557617188	-439.422119140625	-3582.38525390625	583.019287109375	-172.2213897705078	-4076.330810546875	487.4616394042969	-442.9028930664062	-4161.2900390625	426.3029479980469	-434.2994079589844	-3556.50927734375	460.3705444335938	-169.767578125	-4368.9541015625	203.2909698486328	-429.1582946777344	-3640.67529296875	453.8172302246094	-167.2439422607422	-4352.8505859375	377.2749633789062	-311.1587219238281	-3555.736083984375	357.9814758300781	-180.9622497558594	-3633.6826171875	357.987060546875	-177.3573303222656	-4318.42529296875	349.8101806640625	-406.0699462890625	-3586.03662109375	179.0361175537109	-196.9136962890625	-3379.179931640625	174.9782562255859	-225.5193481445312	-3637.0888671875	140.9960174560547	-253.4202575683594	-3615.84033203125	115.9861221313477	-282.6923217773438	-3631.839111328125	112.6326446533203	-228.6474151611328	-4372.36962890625	388.4405822753906	-364.3331909179688
3	0.01	-3648.31689453125	1474.75439453125	-492.3883972167969	-3689.78955078125	1484.584594726562	-199.1245574951172	-3717.1533203125	1025.859741210938	-463.3456420898438	-3695.36181640625	1039.592529296875	-191.5787506103516	-3685.32470703125	969.1689453125	-440.9514465332031	-4318.88525390625	400.5533752441406	-335.9110717773438	-3673.76171875	996.7322387695312	-211.9341278076172	-3843.416015625	937.967529296875	-477.7629089355469	-3791.495849609375	923.8403930664062	-141.2520446777344	-3845.226806640625	1043.453979492188	-329.6637573242188	-3882.296630859375	712.3037719726562	-476.8135681152344	-4185.74951171875	497.041748046875	-418.6943054199219	-3943.77099609375	746.6112060546875	-440.5011596679688	-3915.946044921875	620.822265625	-455.0885620117188	-3419.173828125	143.1730194091797	-168.8452301025391	-4106.32568359375	555.77490234375	-435.4786071777344	-3982.50390625	657.0208129882812	-426.3333129882812	-3584.4912109375	756.9398193359375	-161.8699340820312	-4317.64013671875	145.1602630615234	-380.5895385742188	-3654.91259765625	725.88623046875	-150.5469207763672	-3541.780029296875	669.8565673828125	-187.6460571289062	-3615.4013671875	633.4988403320312	-168.8694000244141	-3998.041748046875	580.8319091796875	-440.7954406738281	-3564.56201171875	579.6602783203125	-171.7630462646484	-4057.396728515625	490.1387023925781	-444.4328308105469	-4139.18408203125	429.5303955078125	-432.1646423339844	-3535.640869140625	459.3207092285156	-170.0580749511719	-4353.421875	213.5215301513672	-431.79931640625	-3620.019287109375	450.0640563964844	-167.9332733154297	-4344.76416015625	385.9691467285156	-310.7437438964844	-3529.902099609375	355.8246459960938	-181.2547760009766	-3607.818603515625	354.2897338867188	-178.4182739257812	-4302.71435546875	358.9429626464844	-406.0463256835938	-3555.60791015625	176.0706329345703	-198.9565582275391	-3345.9443359375	181.7819976806641	-225.39013671875	-3602.88134765625	136.2098846435547	-254.7225799560547	-3578.671875	111.3986968994141	-283.7599182128906	-3595.2041015625	107.4611740112305	-229.5187683105469	-4355.79248046875	396.6241760253906	-363.6239929199219
4	0.015	-3625.799560546875	1474.415405273438	-491.9213256835938	-3669.31591796875	1483.574951171875	-198.9851379394531	-3696.16796875	1025.456787109375	-463.6709289550781	-3675.68701171875	1038.70361328125	-191.5142059326172	-3663.284423828125	969.4053955078124	-441.0981750488281	-4302.8720703125	409.2939453125	-335.0581359863281	-3651.50244140625	996.0872192382812	-212.7899017333984	-3821.235595703125	937.024658203125	-478.0320129394531	-3770.827880859375	923.1217041015624	-142.8515625	-3823.940673828125	1042.89892578125	-329.2682189941406	-3859.50927734375	711.5501098632812	-477.3784790039062	-4165.2763671875	502.4507751464844	-418.7259826660156	-3921.64404296875	745.5286254882812	-441.9078674316406	-3892.2255859375	619.6878051757812	-456.4837646484375	-3386.894775390625	146.2484893798828	-169.2552642822266	-4084.7568359375	558.8717651367188	-436.2038879394531	-3959.744140625	655.5886840820312	-427.5416564941406	-3564.78857421875	753.9086303710938	-162.4431304931641	-4301.64794921875	154.9379577636719	-383.8199157714844	-3634.127685546875	723.7039794921875	-148.4751434326172	-3521.855712890625	667.279296875	-187.8203582763672	-3594.879638671875	630.97314453125	-167.5373229980469	-3974.8701171875	580.4476928710938	-441.6189270019531	-3546.5009765625	577.71923828125	-172.6761322021484	-4037.725341796875	491.7181091308594	-445.7162475585938	-4122.47998046875	434.976318359375	-433.3695068359375	-3514.5859375	458.0609436035156	-170.1260681152344	-4338.58154296875	224.4414825439453	-433.9361877441406	-3598.3740234375	445.1878356933594	-169.1722106933594	-4325.67236328125	392.6792602539062	-310.2571411132812	-3505.555419921875	355.0490417480469	-181.3795166015625	-3582.540771484375	349.9660949707031	-179.1543579101562	-4286.38134765625	368.5718078613281	-405.5606384277344	-3523.03515625	174.3902130126953	-200.0615692138672	-3313.92333984375	188.1139678955078	-224.8341064453125	-3567.973876953125	133.2272186279297	-255.8635711669922	-3543.84326171875	109.4080810546875	-284.875	-3555.743896484375	105.6392974853516	-229.9668426513672	-4340.365234375	406.9581604003906	-363.2618103027344
5	0.02	-3604.432373046875	1473.7470703125	-491.1541442871094	-3649.096435546875	1483.003051757812	-198.4764862060547	-3674.91845703125	1025.318359375	-463.4767456054688	-3653.1708984375	1038.164184570312	-192.2605285644531	-3642.47900390625	968.4005737304688	-441.4854431152344	-4284.9140625	416.9300231933594	-332.802978515625	-3631.825439453125	995.1527099609376	-213.2767791748047	-3799.881103515625	936.7547607421876	-478.5042724609375	-3752.830810546875	921.7920532226562	-143.4712677001953	-3803.193603515625	1042.33251953125	-329.6536254882812	-3836.91259765625	710.5657348632812	-478.1047973632812	-4144.72705078125	507.6795043945312	-418.6678161621094	-3899.16943359375	744.3138427734375	-443.4937744140625	-3869.66455078125	618.6492919921875	-456.5342407226562	-3354.115966796875	148.8890686035156	-169.2511901855469	-4062.337646484375	562.1140747070312	-436.3321533203125	-3937.009765625	654.0513305664062	-428.6351318359375	-3545.392578125	751.553955078125	-162.1761322021484	-4289.04150390625	163.5982666015625	-386.3916931152344	-3616.05908203125	721.5834350585938	-148.3993835449219	-3504.030517578125	663.0158081054688	-188.0792541503906	-3577.1201171875	628.2085571289062	-167.5648498535156	-3951.942138671875	579.9722900390625	-442.855712890625	-3527.0263671875	574.4661865234375	-171.9287414550781	-4017.57470703125	493.147216796875	-447.1061096191406	-4104.06787109375	439.1204528808594	-433.3895568847656	-3493.6416015625	456.66162109375	-170.8104553222656	-4322.193359375	234.5837554931641	-435.6473999023438	-3576.458251953125	442.0147399902344	-170.2910308837891	-4309.04296875	402.8766174316406	-310.2538757324219	-3480.8349609375	354.3124084472656	-181.8961944580078	-3559.4951171875	347.1896667480469	-180.8045349121094	-4269.27783203125	377.1090393066406	-405.269287109375	-3492.12744140625	172.8391418457031	-200.9640197753906	-3283.04931640625	194.8537902832031	-224.3354797363281	-3534.568115234375	129.8104400634766	-257.0916442871094	-3509.87109375	107.3481750488281	-286.2313537597656	-3521.327392578125	101.8700942993164	-231.3631744384766	-4321.697265625	416.1734313964844	-361.6926574707031
